<?xml version="1.0" encoding="UTF-8"?>
<svg version="1.1" xmlns="http://www.w3.org/2000/svg" width="21" height="24">
<path d="M0 0 C-0.33 1.32 -0.66 2.64 -1 4 C0.65 4.99 2.3 5.98 4 7 C3.690625 8.85625 3.690625 8.85625 3.375 10.75 C2.90033129 14.09074811 2.90033129 14.09074811 4.125 17.1875 C4.41375 17.785625 4.7025 18.38375 5 19 C4.00390625 21.59375 4.00390625 21.59375 2 24 C-1.35546875 24.48828125 -1.35546875 24.48828125 -5.1875 24.3125 C-6.45980469 24.26738281 -7.73210938 24.22226562 -9.04296875 24.17578125 C-10.01878906 24.11777344 -10.99460937 24.05976563 -12 24 C-15.52688871 18.70966694 -16.94253794 15.3883127 -16 9 C-13.8125 6.4375 -13.8125 6.4375 -11 5 C-8.1875 5.25 -8.1875 5.25 -6 6 C-5.87625 5.195625 -5.7525 4.39125 -5.625 3.5625 C-5.41875 2.716875 -5.2125 1.87125 -5 1 C-3 0 -3 0 0 0 Z " fill="#000000" transform="translate(16,0)"/>
</svg>
