<svg width="94" height="94" viewBox="0 0 94 94" fill="none" xmlns="http://www.w3.org/2000/svg">
<mask id="mask0_16_2042" style="mask-type:alpha" maskUnits="userSpaceOnUse" x="0" y="0" width="94" height="94">
<rect width="94" height="94" fill="#D9D9D9"/>
</mask>
<g mask="url(#mask0_16_2042)">
<path d="M41.5166 54.05L33.0958 45.6292C32.3777 44.9111 31.4638 44.5521 30.3541 44.5521C29.2444 44.5521 28.3305 44.9111 27.6124 45.6292C26.8944 46.3472 26.5353 47.2611 26.5353 48.3708C26.5353 49.4806 26.8944 50.3945 27.6124 51.1125L38.7749 62.275C39.5583 63.0583 40.4721 63.45 41.5166 63.45C42.561 63.45 43.4749 63.0583 44.2583 62.275L66.3874 40.1458C67.1055 39.4278 67.4645 38.5139 67.4645 37.4042C67.4645 36.2945 67.1055 35.3806 66.3874 34.6625C65.6694 33.9445 64.7555 33.5854 63.6458 33.5854C62.536 33.5854 61.6221 33.9445 60.9041 34.6625L41.5166 54.05ZM46.9999 86.1667C41.5819 86.1667 36.4902 85.1385 31.7249 83.0823C26.9596 81.0261 22.8145 78.2354 19.2895 74.7104C15.7645 71.1854 12.9739 67.0403 10.9176 62.275C8.86138 57.5097 7.83325 52.4181 7.83325 47C7.83325 41.582 8.86138 36.4903 10.9176 31.725C12.9739 26.9597 15.7645 22.8146 19.2895 19.2896C22.8145 15.7646 26.9596 12.974 31.7249 10.9177C36.4902 8.86147 41.5819 7.83334 46.9999 7.83334C52.418 7.83334 57.5096 8.86147 62.2749 10.9177C67.0402 12.974 71.1853 15.7646 74.7103 19.2896C78.2353 22.8146 81.026 26.9597 83.0822 31.725C85.1385 36.4903 86.1666 41.582 86.1666 47C86.1666 52.4181 85.1385 57.5097 83.0822 62.275C81.026 67.0403 78.2353 71.1854 74.7103 74.7104C71.1853 78.2354 67.0402 81.0261 62.2749 83.0823C57.5096 85.1385 52.418 86.1667 46.9999 86.1667Z" fill="#00AF06"/>
</g>
</svg>
