<?xml version="1.0" encoding="UTF-8"?>
<svg version="1.1" xmlns="http://www.w3.org/2000/svg" width="25" height="24">
<path d="M0 0 C2.5625 2 2.5625 2 4 4 C2.78515625 5.5 2.78515625 5.5 1 7 C-1.19140625 7.1875 -1.19140625 7.1875 -3.5625 7 C-5.88878576 6.74935464 -5.88878576 6.74935464 -8 7 C-10.35014158 9.837578 -10.35014158 9.837578 -9.6875 13.125 C-9.29355679 15.88086422 -9.29355679 15.88086422 -8 17 C-4.5 17.16666667 -4.5 17.16666667 -1 17 C-0.67 16.67 -0.34 16.34 0 16 C-1.65 15.67 -3.3 15.34 -5 15 C-5 13.02 -5 11.04 -5 9 C-1.04 9 2.92 9 7 9 C7.66964286 16.76785714 7.66964286 16.76785714 4.625 20.4375 C0.82617743 24.14587441 -1.52905985 24.40567082 -6.67578125 24.34765625 C-10.69373153 23.74665192 -12.28247364 21.98265089 -15 19 C-16.86933306 15.91153669 -17.00349989 14.19249418 -16.9375 10.5625 C-15.76192992 6.09533368 -14.20335403 4.28148461 -11 1 C-7.55789151 -0.72105424 -3.76366353 -0.51474617 0 0 Z " fill="#4184F2" transform="translate(17,0)"/>
<path d="M0 0 C2.5625 2 2.5625 2 4 4 C2.78515625 5.5 2.78515625 5.5 1 7 C-1.19140625 7.1875 -1.19140625 7.1875 -3.5625 7 C-5.88878576 6.74935464 -5.88878576 6.74935464 -8 7 C-10.16591371 9.76148156 -10.16591371 9.76148156 -10.3125 12.5625 C-10.539375 13.366875 -10.76625 14.17125 -11 15 C-13.5625 16.3125 -13.5625 16.3125 -16 17 C-16.86114699 13.08569552 -17.22345413 10.63312003 -15.875 6.8125 C-11.69382345 0.54073518 -7.4053641 -1.43686169 0 0 Z " fill="#EA4434" transform="translate(17,0)"/>
<path d="M0 0 C0.33 0.474375 0.66 0.94875 1 1.4375 C3.63872452 3.49900353 5.78399705 3.48649982 9.0625 3.69140625 C11 4 11 4 14 6 C13 9 13 9 11 10 C7.16599653 10.53676049 3.50306786 10.87196229 0.07421875 8.8828125 C-1.5625 7.5 -1.5625 7.5 -4 5 C-2.25 1.125 -2.25 1.125 0 0 Z " fill="#35A752" transform="translate(6,14)"/>
<path d="M0 0 C3.875 1.875 3.875 1.875 5 3 C5.04063832 4.66617115 5.042721 6.33388095 5 8 C3.35 8.66 1.7 9.32 0 10 C-1.125 3.375 -1.125 3.375 0 0 Z " fill="#F7BB06" transform="translate(1,7)"/>
</svg>
